<?xml version="1.0" encoding="utf-8"?>
<!-- Generator: Adobe Illustrator 24.0.1, SVG Export Plug-In . SVG Version: 6.00 Build 0)  -->
<svg version="1.1" id="Calque_1" xmlns="http://www.w3.org/2000/svg" xmlns:xlink="http://www.w3.org/1999/xlink" x="0px" y="0px"
	 viewBox="0 0 732 1000" style="enable-background:new 0 0 732 1000;" xml:space="preserve">
<style type="text/css">
	.st0{fill:#FFFFFF;stroke:#000000;stroke-width:57;stroke-miterlimit:10;}
</style>
<g>
	<path d="M365.8,69.2l301.3,27.5v342c0,102.3-27.7,197.1-82.3,281.8c-27.2,42.2-61.3,81.9-101.3,118
		c-34.5,31.1-73.8,59.9-117.1,85.6c-43.2-25.8-82.5-54.5-117.1-85.6c-40-36-74-75.7-101.3-118C93.5,635.9,65.8,541,65.8,438.7v-342
		L365.8,69.2 M365.8,12L8.8,44.7v394.1c0,228,125.8,423,354,549.1l3.6,2l3.6-2c228.3-126.1,354.1-321.1,354.1-549.1V44.7L365.8,12
		L365.8,12z"/>
</g>
<line class="st0" x1="30" y1="224" x2="719" y2="224"/>
<line class="st0" x1="244" y1="225" x2="520" y2="848"/>
</svg>
