<?xml version="1.0" encoding="utf-8"?>
<!-- Generator: Adobe Illustrator 25.0.0, SVG Export Plug-In . SVG Version: 6.00 Build 0)  -->
<svg version="1.0" id="Calque_1" xmlns="http://www.w3.org/2000/svg" xmlns:xlink="http://www.w3.org/1999/xlink" x="0px" y="0px"
	 viewBox="0 0 1000 1000" style="enable-background:new 0 0 1000 1000;" xml:space="preserve">
<style type="text/css">
	.st0{fill:#FFFFFF;}
</style>
<g>
	<path d="M323.24,861.04l-186.73-195.8L734.68,94.8c12.75-12.16,29.44-18.63,47.08-18.21c17.61,0.42,34.01,7.67,46.16,20.42
		l95.7,100.35c25.09,26.32,24.1,68.14-2.21,93.24L323.24,861.04z M167.06,665.96L323.97,830.5L906.5,274.97
		c17.7-16.88,18.36-45.01,1.49-62.7l-95.7-100.35c-8.18-8.57-19.2-13.45-31.04-13.73c-11.89-0.3-23.09,4.07-31.66,12.24
		L167.06,665.96z"/>
</g>
<g>
	<line class="st0" x1="702.22" y1="140.68" x2="874.04" y2="320.85"/>
	<rect x="777.33" y="106.28" transform="matrix(0.7237 -0.6901 0.6901 0.7237 58.5205 607.6848)" width="21.6" height="248.96"/>
</g>
<g>
	<line class="st0" x1="757.23" y1="198.36" x2="206.79" y2="723.28"/>
	<rect x="101.71" y="450.02" transform="matrix(0.7237 -0.6902 0.6902 0.7237 -184.8395 460.0168)" width="760.61" height="21.6"/>
</g>
<g>
	<line class="st0" x1="815.32" y1="259.27" x2="264.88" y2="784.2"/>
	<rect x="159.79" y="510.93" transform="matrix(0.7237 -0.6902 0.6902 0.7237 -210.8261 516.9402)" width="760.61" height="21.6"/>
</g>
<polygon points="62.84,922.45 136.42,665.35 157.18,671.29 93.74,892.96 318.29,840.01 323.24,861.04 "/>
<polygon points="97.55,816.36 111.62,830.5 123.14,843.19 133.51,854.53 144.89,866 158.87,880.23 170.45,892.8 66.55,918.9 "/>
<path d="M870.39,310.17L711.08,143.12l64.72-61.72c2.04-1.95,5.27-1.87,7.22,0.17l152.26,159.66c1.95,2.04,1.87,5.27-0.17,7.22
	L870.39,310.17z"/>
</svg>
