<?xml version="1.0" encoding="utf-8"?>
<!-- Generator: Adobe Illustrator 25.0.0, SVG Export Plug-In . SVG Version: 6.00 Build 0)  -->
<svg version="1.0" id="Calque_1" xmlns="http://www.w3.org/2000/svg" xmlns:xlink="http://www.w3.org/1999/xlink" x="0px" y="0px"
	 viewBox="0 0 595.28 595.28" style="enable-background:new 0 0 595.28 595.28;" xml:space="preserve">
<style type="text/css">
	.st0{fill:#241F20;}
	.st1{fill:#E5272D;}
	.st2{fill:#F1E62B;}
	.st3{fill:#E4262D;}
	.st4{fill:#E6292D;}
</style>
<g>
	<path class="st0" d="M50.39,112.02c0-17.43,0-34.86,0-52.3c0.61-0.13,0.38-0.64,0.39-0.99c0.16-4.73,0.25-9.47,0.47-14.19
		c0.37-8.08,0.83-16.15,1.26-24.33c0.48,0.1,0.81,0.15,1.12,0.25c8.21,2.35,16.46,4.53,24.76,6.52
		c24.85,5.97,50.03,10.03,75.4,12.94c14.85,1.7,29.74,2.94,44.66,3.88c19.24,1.22,38.51,2.03,57.78,2.23
		c35.47,0.37,70.95,0.39,106.41-0.66c17.21-0.51,34.41-1.32,51.58-2.62c15.03-1.14,30.02-2.72,44.97-4.76
		c16.82-2.3,33.53-5.22,50.09-8.94c10.8-2.42,21.52-5.18,32.11-8.43c1.31-0.4,1.91-0.42,1.87,1.27c-0.05,2.46,0.21,4.93,0.34,7.4
		c0.99,18.99,0.81,38,0.9,57.01c0.13,26.71-1.21,53.35-3.69,79.94c-1.62,17.4-3.81,34.72-6.58,51.98
		c-3.92,24.4-9.1,48.51-15.74,72.31c-11.24,40.24-26.46,78.87-46.95,115.35c-37,65.86-87.72,118.43-152.53,157.31
		c-6.97,4.18-14.11,8.07-21.17,12.1c-0.27,0-0.55,0-0.82,0c-0.55-0.75-1.44-0.96-2.2-1.36c-34.86-18.41-66.71-41.02-95.13-68.37
		c-39.93-38.42-70.59-83.36-93.69-133.59c-15.4-33.48-26.98-68.28-35.56-104.1c-3.79-15.83-7.01-31.78-9.66-47.84
		c-2.04-12.36-3.72-24.78-5.12-37.23c-1.27-11.24-2.34-22.5-3.13-33.78c-0.84-11.97-1.54-23.96-1.74-35.96
		C50.78,112.68,50.93,112.21,50.39,112.02z M518.12,88.58c-0.06-9.88,0.16-20.79-0.31-31.7c-0.11-2.46-0.06-2.44-2.47-2.01
		c-8.29,1.47-16.56,3.06-24.88,4.35c-20.04,3.11-40.15,5.66-60.34,7.6c-14.88,1.43-29.78,2.59-44.69,3.5
		c-16.36,1-32.75,1.64-49.14,2.05c-22.78,0.57-45.56,0.73-68.34,0.43c-19.82-0.26-39.64-0.78-59.44-1.92
		c-10.95-0.63-21.9-1.32-32.83-2.27c-11.06-0.96-22.1-2.1-33.12-3.5c-10.33-1.31-20.64-2.72-30.91-4.42
		c-10.94-1.81-21.84-3.85-32.67-6.24c-1-0.22-1.5-0.11-1.51,1.13c-0.02,2.95-0.25,5.9-0.3,8.84c-0.46,31.09,0.03,62.15,2.74,93.16
		c1.15,13.18,2.51,26.34,4.31,39.44c2.61,19,5.96,37.87,10.19,56.58c7.71,34.06,18.13,67.25,32.15,99.27
		c18.21,41.57,41.82,79.7,72.22,113.5c28.18,31.33,60.73,57.21,97.38,77.97c1.01,0.57,1.71,0.41,2.62-0.12
		c8.35-4.87,16.57-9.95,24.59-15.35c37.05-24.94,68.98-55.27,95.68-91.08c25.33-33.97,44.74-71.13,59.53-110.77
		c15.48-41.48,25.4-84.35,31.62-128.12c2.61-18.39,4.47-36.88,5.75-55.41C517.23,125.55,517.85,107.59,518.12,88.58z"/>
	<path class="st1" d="M518.12,88.58c-0.27,19.01-0.89,36.97-2.13,54.91c-1.28,18.53-3.14,37.01-5.75,55.41
		c-6.22,43.77-16.14,86.64-31.62,128.12c-14.79,39.63-34.21,76.8-59.53,110.77c-26.7,35.81-58.62,66.15-95.68,91.08
		c-8.02,5.4-16.24,10.48-24.59,15.35c-0.91,0.53-1.62,0.69-2.62,0.12c-36.65-20.76-69.2-46.65-97.38-77.97
		c-30.4-33.8-54.01-71.93-72.22-113.5c-14.02-32.02-24.44-65.2-32.15-99.27c-4.23-18.71-7.59-37.58-10.19-56.58
		c-1.8-13.1-3.15-26.26-4.31-39.44c-2.71-31-3.21-62.06-2.74-93.16c0.04-2.95,0.27-5.9,0.3-8.84C77.5,54.35,78,54.24,79,54.46
		c10.83,2.39,21.73,4.43,32.67,6.24c10.27,1.7,20.58,3.11,30.91,4.42c11.02,1.39,22.06,2.54,33.12,3.5
		c10.93,0.95,21.88,1.64,32.83,2.27c19.8,1.14,39.62,1.66,59.44,1.92c22.78,0.3,45.56,0.14,68.34-0.43
		c16.39-0.41,32.77-1.04,49.14-2.05c14.91-0.91,29.81-2.08,44.69-3.5c20.19-1.94,40.3-4.49,60.34-7.6
		c8.32-1.29,16.59-2.88,24.88-4.35c2.41-0.43,2.36-0.45,2.47,2.01C518.28,67.79,518.06,78.7,518.12,88.58z M499.13,181.28
		c0.21-2.68,0.21-2.67-1.4-2.42c-19.43,3-38.94,5.39-58.5,7.36c-16.17,1.63-32.36,2.94-48.57,3.92
		c-14.72,0.89-29.45,1.61-44.19,2.02c-22.7,0.64-45.4,1.13-68.11,0.74c-13.58-0.24-27.16-0.49-40.73-1.1
		c-11.92-0.54-23.83-1.25-35.74-2.03c-8.96-0.59-17.91-1.36-26.85-2.17c-8.94-0.81-17.87-1.71-26.79-2.7
		c-9.8-1.08-19.6-2.26-29.38-3.5c-7.34-0.93-14.65-2.02-21.97-3.04c-0.96-0.13-1.76-0.23-1.53,1.27c0.49,3.32,0.8,6.67,1.24,9.99
		c2.54,19.01,5.69,37.91,9.78,56.65c7.55,34.66,17.95,68.42,32.19,100.94c21.75,49.67,51.23,94.02,90.73,131.44
		c20.3,19.23,42.52,35.9,66.55,50.17c0.94,0.56,1.66,0.84,2.77,0.17c48.39-29.15,88.55-66.99,120.22-113.79
		c24.95-36.88,43.16-76.95,56.43-119.36c7.55-24.13,13.37-48.68,17.79-73.58C495.52,208.44,497.51,194.55,499.13,181.28z
		 M302.32,179.65c35.61-0.17,71.18-1.4,106.69-4.13c12.85-0.99,25.69-2.09,38.5-3.48c17.3-1.87,34.55-4.11,51.74-6.82
		c1.17-0.18,1.6-0.51,1.72-1.72c1.02-10.17,1.77-20.36,2.33-30.56c0.43-7.88,0.8-15.76,1.04-23.64c0.38-12.35,0.58-24.7,0.52-37.05
		c-0.01-1.13-0.29-1.35-1.43-1.14c-4.31,0.78-8.64,1.47-12.97,2.11c-21.22,3.13-42.5,5.7-63.86,7.59
		c-17.08,1.51-34.18,2.68-51.3,3.5c-14.39,0.69-28.79,1.14-43.19,1.43c-33.28,0.67-66.55,0.65-99.81-0.6
		c-22.06-0.83-44.1-2.23-66.08-4.36c-12.62-1.22-25.22-2.61-37.78-4.3c-11.87-1.59-23.73-3.36-35.51-5.57
		c-2.54-0.48-2.54-0.44-2.57,2.13c-0.24,20.45,0.12,40.89,1.29,61.31c0.54,9.38,1.38,18.74,2.03,28.11c0.11,1.55,0.62,2.14,2.3,2.37
		c10.25,1.39,20.47,2.94,30.75,4.12c11.43,1.32,22.85,2.78,34.3,3.95c13.57,1.38,27.16,2.51,40.77,3.48
		c17.24,1.23,34.5,2.11,51.77,2.71C269.79,179.67,286.05,179.74,302.32,179.65z"/>
	<path class="st0" d="M499.13,181.28c-1.62,13.26-3.61,27.15-6.07,40.98c-4.42,24.9-10.24,49.45-17.79,73.58
		c-13.27,42.4-31.48,82.48-56.43,119.36c-31.67,46.8-71.83,84.64-120.22,113.79c-1.11,0.67-1.83,0.39-2.77-0.17
		c-24.03-14.28-46.25-30.94-66.55-50.17c-39.5-37.43-68.98-81.77-90.73-131.44c-14.24-32.52-24.64-66.28-32.19-100.94
		c-4.08-18.74-7.24-37.64-9.78-56.65c-0.44-3.33-0.75-6.67-1.24-9.99c-0.22-1.5,0.58-1.4,1.53-1.27c7.32,1.02,14.64,2.11,21.97,3.04
		c9.78,1.24,19.58,2.41,29.38,3.5c8.92,0.99,17.85,1.89,26.79,2.7c8.94,0.81,17.89,1.58,26.85,2.17c11.9,0.79,23.82,1.5,35.74,2.03
		c13.57,0.61,27.15,0.87,40.73,1.1c22.71,0.39,45.41-0.1,68.11-0.74c14.74-0.42,29.47-1.13,44.19-2.02
		c16.21-0.98,32.4-2.29,48.57-3.92c19.56-1.97,39.07-4.36,58.5-7.36C499.34,178.61,499.34,178.6,499.13,181.28z M255.54,226.62
		c4.97-1.68,10.03-2.75,15.15-3.62c1.55-0.26,1.66,0.19,1.65,1.46c-0.05,6.38-0.03,12.76-0.01,19.14c0,0.91-0.15,1.76-0.47,2.6
		c-1.9,4.99-3.31,10.13-4.51,15.34c-4.38,19.07-5.83,38.45-6.14,57.95c-0.03,1.7-0.74,3.88,0.29,4.97c1.05,1.1,3.26,0.39,4.94,0.31
		c1.72-0.08,2.15,0.46,2.14,2.16c-0.06,25.87-0.06,51.74,0.01,77.6c0,1.87-0.52,2.51-2.29,2.2c-1.48-0.25-1.97,0.25-1.97,1.86
		c0.06,25.32,0.05,50.64,0.01,75.96c0,1.46,0.27,1.99,1.89,1.99c20.86-0.06,41.71-0.05,62.57-0.01c1.45,0,1.84-0.44,1.84-1.86
		c-0.04-25.39-0.04-50.77,0-76.16c0-1.5-0.51-2.01-1.88-1.76c-2.09,0.36-2.43-0.61-2.42-2.51c0.06-24.7,0.03-49.4,0.06-74.1
		c0-1.7-0.75-3.88,0.33-4.96c1.08-1.08,3.27-0.39,4.95-0.3c1.63,0.08,2.04-0.44,2.05-2.05c0.1-10.02-0.31-20.02-1.25-30
		c-1.2-12.7-3.1-25.28-6.58-37.57c-1-3.55-2.93-6.98-3.18-10.56c-0.51-7.16-0.15-14.38-0.15-21.69c5.92,0.77,11.5,2.31,17.33,3.97
		c-9.95-15.89-24.25-23.01-42.45-22.81C279.59,204.34,265.17,211.01,255.54,226.62z M260.45,342.22c0.09-0.09,0.18-0.17,0.27-0.26
		c-0.37-0.3-0.72-0.61-1.1-0.9c-7.31-5.45-14.63-10.89-21.94-16.34c-37.33-27.81-74.66-55.61-111.99-83.42
		c-1.71-1.27-1.69-1.24-2.02,0.92c-1.02,6.84-2.05,13.67-3.16,20.5c-0.25,1.57-0.12,2.53,1.53,3.43
		c38.25,20.95,76.46,41.99,114.68,63.01C244.63,333.51,252.54,337.87,260.45,342.22z M334.96,341.47c0.06,0.13,0.12,0.26,0.18,0.39
		c0.65-0.32,1.31-0.62,1.95-0.96c44.3-24.36,88.59-48.72,132.89-73.08c1.56-0.86,3.59-1.4,4.52-2.71c0.97-1.37-0.25-3.37-0.4-5.11
		c-0.01-0.14-0.01-0.28-0.03-0.41c-0.98-6.4-1.97-12.8-3-19.49C425.54,274,380.25,307.73,334.96,341.47z M150.91,337.16
		c-0.25,0.9,0.21,1.4,0.44,1.93c2.05,4.71,4.2,9.37,6.17,14.11c0.65,1.56,1.53,2.08,3.2,2.11c13.31,0.21,26.61,0.51,39.92,0.79
		c13.1,0.28,26.2,0.61,39.3,0.81c7.17,0.11,14.34,0.02,20.71,0.02C224.64,350.45,187.77,343.8,150.91,337.16z M444.61,337.12
		c-37.28,6.72-74.2,13.37-111.11,20.02c9.84,0.03,19.65-0.23,29.45-0.43c17.62-0.36,35.25-0.67,52.87-1.02
		c6.38-0.12,12.75-0.28,19.13-0.43c0.8-0.02,1.63,0.12,2.07-0.9C439.48,348.72,441.97,343.1,444.61,337.12z M263.27,376.6
		c-0.22-0.2-0.43-0.4-0.65-0.6c-0.13,0.02-0.28,0.01-0.39,0.08c-20.51,12.84-41,25.68-61.52,38.5c-1.03,0.64-0.95,1.05-0.16,1.8
		c3.37,3.23,6.75,6.45,10.02,9.77c1.08,1.1,1.65,1.21,2.82,0.03c14.96-15.13,29.96-30.2,44.99-45.26
		C259.91,379.38,261.64,378.04,263.27,376.6z M332.02,375.52c-0.08,0.08-0.17,0.16-0.25,0.25c0.04,0.06,0.06,0.13,0.11,0.17
		c16.76,16.88,33.52,33.76,50.25,50.67c0.95,0.96,1.41,0.52,2.11-0.17c3.26-3.24,6.48-6.51,9.86-9.62c1.38-1.27,1.18-1.73-0.31-2.66
		c-14.95-9.28-29.85-18.64-44.77-27.98C343.36,382.63,337.69,379.08,332.02,375.52z"/>
	<path class="st2" d="M302.32,179.65c-16.26,0.09-32.52,0.02-48.78-0.54c-17.27-0.6-34.53-1.48-51.77-2.71
		c-13.61-0.97-27.2-2.1-40.77-3.48c-11.45-1.16-22.87-2.62-34.3-3.95c-10.27-1.19-20.5-2.73-30.75-4.12
		c-1.68-0.23-2.19-0.82-2.3-2.37c-0.65-9.37-1.49-18.73-2.03-28.11c-1.17-20.42-1.53-40.86-1.29-61.31
		c0.03-2.57,0.03-2.61,2.57-2.13c11.78,2.21,23.64,3.98,35.51,5.57c12.56,1.68,25.16,3.07,37.78,4.3
		c21.98,2.13,44.02,3.53,66.08,4.36c33.26,1.25,66.53,1.27,99.81,0.6c14.4-0.29,28.8-0.74,43.19-1.43c17.12-0.83,34.22-2,51.3-3.5
		c21.37-1.88,42.65-4.45,63.86-7.59c4.33-0.64,8.66-1.33,12.97-2.11c1.14-0.21,1.43,0.01,1.43,1.14c0.07,12.35-0.14,24.7-0.52,37.05
		c-0.24,7.88-0.61,15.77-1.04,23.64c-0.56,10.2-1.31,20.39-2.33,30.56c-0.12,1.21-0.55,1.54-1.72,1.72
		c-17.19,2.72-34.44,4.95-51.74,6.82c-12.81,1.39-25.65,2.5-38.5,3.48C373.49,178.25,337.92,179.48,302.32,179.65z M192.01,134.25
		c0.7-0.13,1.15-0.23,1.62-0.29c13.3-1.78,18.75-12.11,16.55-22.78c-1.61-7.81-7.1-12.04-14.35-14.35
		c-4.81-1.53-9.8-1.88-14.79-2.28c-9.22-0.75-18.45-1.48-27.67-2.28c-1.45-0.13-1.91,0.4-2,1.75c-0.41,5.81-0.87,11.62-1.34,17.43
		c-0.62,7.72-1.27,15.44-1.89,23.16c-0.64,8-1.21,16-1.89,23.99c-0.11,1.31,0.3,1.62,1.53,1.69c3.28,0.18,6.56,0.51,9.84,0.77
		c2.58,0.2,2.5,0.19,2.7-2.47c0.61-7.86,1.33-15.71,1.9-23.57c0.1-1.43,0.65-1.69,1.89-1.56c3.95,0.41,7.91,0.84,11.88,1.07
		c1.49,0.09,2.26,0.62,2.94,1.94c4.5,8.63,9.09,17.2,13.67,25.78c0.33,0.62,0.43,1.53,1.38,1.62c5.03,0.46,10.06,0.9,15.5,1.39
		C203.57,154.74,197.84,144.58,192.01,134.25z M323.3,123.15c0-0.01,0-0.02,0-0.02c1.99,0,3.98-0.07,5.97,0.02
		c1.3,0.06,1.48-0.35,1.11-1.51c-2.11-6.44-5.58-11.92-11.24-15.79c-8.85-6.05-18.77-7.66-29.22-6.63
		c-15.97,1.57-31.1,13.41-32.12,32.33c-0.73,13.64,4.22,24.67,15.96,31.91c12.6,7.77,25.92,7.41,39.22,1.84
		c8.2-3.44,14.03-9.4,17.24-17.81c0.52-1.35,0.35-1.92-1.2-2.03c-3.21-0.23-6.41-0.65-9.62-0.9c-3.22-0.25-3.21-0.2-4.4,2.7
		c-0.34,0.82-0.75,1.62-1.23,2.36c-6.65,10.38-22.54,12.31-31.55,3.86c-5.65-5.3-7.93-12.03-8.16-19.56
		c-0.11-3.72,0.52-7.38,1.78-10.9c4.23-11.79,13.97-15.54,24.89-13.69c5.66,0.96,10.14,3.83,13.34,8.75
		c1.07,1.65,0.63,4.42,2.89,4.98c1.93,0.48,4.09,0.07,6.15,0.05C323.16,123.15,323.23,123.15,323.3,123.15z M392.17,94.28
		c-3.6,0.35-6.94,0.7-10.28,1c-1.25,0.11-1.63,0.51-1.47,1.94c1.23,10.75,2.33,21.51,3.45,32.28c1.13,10.9,2.26,21.8,3.34,32.7
		c0.11,1.12,0.58,1.38,1.58,1.25c1.63-0.21,3.27-0.37,4.9-0.54c8.58-0.91,17.16-1.81,25.74-2.71c9.4-0.98,18.79-1.97,28.19-2.93
		c0.89-0.09,1.4-0.35,1.28-1.38c-0.34-2.92-0.62-5.86-0.94-8.78c-0.08-0.75-0.3-1.2-1.3-1.09c-9.05,0.99-18.11,1.92-27.17,2.87
		c-5.86,0.61-11.71,1.24-17.57,1.85c-0.97,0.1-1.84,0.25-1.99-1.26c-0.76-7.91-1.63-15.8-2.45-23.7
		c-1.02-9.81-2.04-19.62-3.02-29.43C394.31,94.69,393.95,93.5,392.17,94.28z"/>
	<path class="st2" d="M255.54,226.62c9.62-15.62,24.05-22.28,41.91-22.47c18.19-0.2,32.5,6.92,42.45,22.81
		c-5.83-1.66-11.41-3.2-17.33-3.97c0,7.31-0.36,14.53,0.15,21.69c0.25,3.58,2.17,7.01,3.18,10.56c3.48,12.29,5.38,24.87,6.58,37.57
		c0.94,9.98,1.35,19.98,1.25,30c-0.02,1.61-0.42,2.13-2.05,2.05c-1.68-0.08-3.88-0.78-4.95,0.3c-1.08,1.08-0.33,3.27-0.33,4.96
		c-0.02,24.7,0.01,49.4-0.06,74.1c0,1.9,0.33,2.88,2.42,2.51c1.37-0.24,1.89,0.27,1.88,1.76c-0.04,25.39-0.04,50.77,0,76.16
		c0,1.42-0.38,1.86-1.84,1.86c-20.86-0.04-41.71-0.05-62.57,0.01c-1.61,0-1.89-0.52-1.89-1.99c0.04-25.32,0.05-50.64-0.01-75.96
		c0-1.61,0.49-2.11,1.97-1.86c1.77,0.3,2.3-0.34,2.29-2.2c-0.07-25.87-0.06-51.74-0.01-77.6c0-1.71-0.43-2.25-2.14-2.16
		c-1.68,0.08-3.89,0.79-4.94-0.31c-1.03-1.08-0.32-3.27-0.29-4.97c0.31-19.5,1.76-38.88,6.14-57.95c1.19-5.2,2.61-10.34,4.51-15.34
		c0.32-0.84,0.47-1.69,0.47-2.6c-0.03-6.38-0.04-12.76,0.01-19.14c0.01-1.27-0.1-1.72-1.65-1.46
		C265.57,223.87,260.51,224.94,255.54,226.62z M292.88,365.68c0-13.04-0.02-26.08,0.03-39.11c0.01-1.4-0.32-1.9-1.8-1.87
		c-3.98,0.1-7.96,0.07-11.94,0.01c-1.17-0.02-1.54,0.36-1.51,1.52c0.07,3.09,0.02,6.18,0.02,9.26c0,23.06,0.02,46.11-0.04,69.17
		c0,1.67,0.36,2.24,2.12,2.18c3.7-0.14,7.41-0.13,11.11,0c1.64,0.06,2.04-0.43,2.04-2.05C292.85,391.75,292.88,378.71,292.88,365.68
		z M317.19,365.66c0-13.03-0.01-26.06,0.02-39.09c0-1.22-0.15-1.83-1.62-1.79c-3.97,0.11-7.96,0.1-11.93,0
		c-1.44-0.04-1.67,0.53-1.66,1.79c0.03,26.13,0.04,52.26-0.01,78.39c0,1.5,0.5,1.83,1.89,1.8c3.77-0.08,7.55-0.11,11.31,0.01
		c1.61,0.05,2.06-0.38,2.05-2.02C317.16,391.72,317.19,378.69,317.19,365.66z M301.96,233.03c0-3.5-0.04-7,0.02-10.5
		c0.02-1.06-0.27-1.44-1.37-1.4c-2.12,0.08-4.25,0.06-6.38,0.01c-0.94-0.02-1.33,0.23-1.33,1.26c0.04,7,0.04,14,0,21
		c-0.01,1,0.32,1.31,1.3,1.28c2.06-0.06,4.12-0.09,6.17,0.01c1.24,0.06,1.66-0.27,1.62-1.58
		C301.89,239.75,301.96,236.39,301.96,233.03z M287.14,233.1c0-3.42-0.04-6.85,0.02-10.27c0.02-1.09-0.31-1.43-1.39-1.32
		c-2.18,0.21-4.36,0.36-6.55,0.45c-0.94,0.04-1.12,0.46-1.12,1.28c0.02,6.71,0.04,13.42-0.01,20.13c-0.01,1.18,0.5,1.33,1.47,1.31
		c2.05-0.05,4.11-0.08,6.16,0.01c1.22,0.06,1.47-0.42,1.45-1.53C287.1,239.81,287.14,236.45,287.14,233.1z M307.74,232.87
		c0,3.42,0.04,6.85-0.02,10.27c-0.02,1.09,0.18,1.61,1.43,1.55c2.12-0.1,4.24-0.07,6.36-0.01c0.97,0.03,1.29-0.28,1.28-1.27
		c-0.04-6.71-0.03-13.42-0.01-20.12c0-0.81-0.17-1.26-1.11-1.31c-2.12-0.1-4.23-0.24-6.34-0.48c-1.25-0.14-1.67,0.19-1.64,1.51
		C307.8,226.29,307.74,229.58,307.74,232.87z"/>
	<path class="st3" d="M260.45,342.22c-7.91-4.35-15.81-8.71-23.72-13.06c-38.22-21.02-76.43-42.05-114.68-63.01
		c-1.65-0.9-1.78-1.85-1.53-3.43c1.1-6.82,2.13-13.66,3.16-20.5c0.32-2.16,0.31-2.19,2.02-0.92c37.33,27.8,74.66,55.61,111.99,83.42
		c7.31,5.45,14.63,10.89,21.94,16.34c0.38,0.28,0.73,0.6,1.1,0.9C260.63,342.05,260.54,342.13,260.45,342.22z"/>
	<path class="st3" d="M334.96,341.47c45.29-33.74,90.58-67.47,136.1-101.38c1.03,6.7,2.01,13.1,3,19.49
		c0.02,0.14,0.02,0.27,0.03,0.41c0.15,1.74,1.37,3.75,0.4,5.11c-0.93,1.31-2.96,1.86-4.52,2.71
		c-44.29,24.36-88.59,48.72-132.89,73.08c-0.63,0.35-1.3,0.64-1.95,0.96C335.08,341.73,335.02,341.6,334.96,341.47z"/>
	<path class="st3" d="M150.91,337.16c36.86,6.64,73.73,13.28,109.76,19.78c-6.37,0-13.54,0.09-20.71-0.02
		c-13.1-0.21-26.2-0.54-39.3-0.81c-13.31-0.28-26.61-0.58-39.92-0.79c-1.67-0.03-2.55-0.55-3.2-2.11c-1.98-4.74-4.13-9.4-6.17-14.11
		C151.12,338.56,150.66,338.06,150.91,337.16z"/>
	<path class="st3" d="M444.61,337.12c-2.64,5.99-5.13,11.6-7.59,17.23c-0.44,1.02-1.27,0.88-2.07,0.9
		c-6.38,0.15-12.75,0.31-19.13,0.43c-17.62,0.35-35.25,0.66-52.87,1.02c-9.8,0.2-19.61,0.46-29.45,0.43
		C370.42,350.48,407.33,343.83,444.61,337.12z"/>
	<path class="st3" d="M263.27,376.6c-1.64,1.43-3.36,2.78-4.89,4.32c-15.02,15.06-30.03,30.14-44.99,45.26
		c-1.16,1.18-1.74,1.07-2.82-0.03c-3.27-3.33-6.65-6.55-10.02-9.77c-0.78-0.75-0.87-1.15,0.16-1.8
		c20.52-12.81,41.02-25.66,61.52-38.5c0.1-0.07,0.26-0.05,0.39-0.08C262.84,376.21,263.06,376.41,263.27,376.6z"/>
	<path class="st3" d="M332.02,375.52c5.67,3.55,11.34,7.11,17.01,10.66c14.92,9.34,29.82,18.69,44.77,27.98
		c1.49,0.93,1.69,1.39,0.31,2.66c-3.38,3.11-6.6,6.38-9.86,9.62c-0.7,0.7-1.16,1.13-2.11,0.17c-16.73-16.91-33.49-33.79-50.25-50.67
		c-0.05-0.05-0.07-0.11-0.11-0.17C331.85,375.69,331.94,375.61,332.02,375.52z"/>
	<path class="st4" d="M192.01,134.25c5.82,10.33,11.55,20.49,17.48,31.01c-5.44-0.49-10.47-0.93-15.5-1.39
		c-0.95-0.09-1.05-1-1.38-1.62c-4.58-8.58-9.18-17.16-13.67-25.78c-0.69-1.32-1.45-1.85-2.94-1.94c-3.97-0.24-7.92-0.66-11.88-1.07
		c-1.25-0.13-1.79,0.13-1.89,1.56c-0.57,7.86-1.29,15.71-1.9,23.57c-0.21,2.66-0.12,2.68-2.7,2.47c-3.28-0.26-6.56-0.59-9.84-0.77
		c-1.23-0.07-1.64-0.38-1.53-1.69c0.68-7.99,1.25-15.99,1.89-23.99c0.61-7.72,1.27-15.44,1.89-23.16
		c0.47-5.81,0.93-11.62,1.34-17.43c0.1-1.36,0.55-1.88,2-1.75c9.22,0.8,18.44,1.53,27.67,2.28c4.98,0.4,9.98,0.75,14.79,2.28
		c7.25,2.31,12.74,6.54,14.35,14.35c2.2,10.68-3.25,21.01-16.55,22.78C193.17,134.02,192.71,134.12,192.01,134.25z M181.85,125.01
		c1.62-0.07,3.13-0.08,4.62-0.22c6.78-0.66,11-6.14,9.3-12.23c-1.34-4.79-5.18-6.78-9.62-7.49c-6.69-1.08-13.48-1.26-20.23-1.83
		c-1.23-0.1-1.15,0.61-1.21,1.35c-0.5,5.86-0.98,11.73-1.51,17.59c-0.1,1.09,0.32,1.36,1.36,1.43
		C170.36,124.03,176.15,124.54,181.85,125.01z"/>
	<path class="st4" d="M323.3,123.15c-0.07,0-0.14,0-0.21,0c-2.06,0.02-4.21,0.43-6.15-0.05c-2.26-0.56-1.82-3.33-2.89-4.98
		c-3.19-4.93-7.68-7.79-13.34-8.75c-10.92-1.86-20.66,1.89-24.89,13.69c-1.26,3.52-1.9,7.18-1.78,10.9
		c0.23,7.53,2.51,14.26,8.16,19.56c9.01,8.45,24.9,6.52,31.55-3.86c0.48-0.75,0.89-1.55,1.23-2.36c1.2-2.89,1.19-2.95,4.4-2.7
		c3.21,0.25,6.41,0.66,9.62,0.9c1.55,0.11,1.72,0.68,1.2,2.03c-3.21,8.41-9.04,14.38-17.24,17.81c-13.3,5.57-26.62,5.94-39.22-1.84
		c-11.74-7.25-16.7-18.27-15.96-31.91c1.02-18.92,16.15-30.76,32.12-32.33c10.45-1.03,20.37,0.58,29.22,6.63
		c5.66,3.87,9.13,9.35,11.24,15.79c0.38,1.16,0.19,1.57-1.11,1.51c-1.99-0.1-3.98-0.02-5.97-0.02
		C323.3,123.13,323.3,123.14,323.3,123.15z"/>
	<path class="st4" d="M392.17,94.28c1.77-0.78,2.13,0.42,2.3,2.06c0.98,9.81,2,19.62,3.02,29.43c0.82,7.9,1.69,15.8,2.45,23.7
		c0.15,1.51,1.02,1.36,1.99,1.26c5.86-0.61,11.71-1.24,17.57-1.85c9.06-0.95,18.12-1.88,27.17-2.87c1-0.11,1.22,0.34,1.3,1.09
		c0.32,2.93,0.6,5.86,0.94,8.78c0.12,1.03-0.39,1.29-1.28,1.38c-9.4,0.96-18.8,1.94-28.19,2.93c-8.58,0.9-17.16,1.81-25.74,2.71
		c-1.63,0.17-3.27,0.33-4.9,0.54c-1.01,0.13-1.47-0.13-1.58-1.25c-1.08-10.9-2.21-21.8-3.34-32.7c-1.12-10.76-2.22-21.53-3.45-32.28
		c-0.16-1.43,0.22-1.82,1.47-1.94C385.24,94.97,388.57,94.63,392.17,94.28z"/>
	<path class="st0" d="M292.88,365.68c0,13.04-0.03,26.08,0.04,39.11c0.01,1.61-0.4,2.1-2.04,2.05c-3.7-0.13-7.41-0.14-11.11,0
		c-1.75,0.07-2.12-0.51-2.12-2.18c0.06-23.06,0.04-46.11,0.04-69.17c0-3.09,0.05-6.18-0.02-9.26c-0.03-1.17,0.34-1.54,1.51-1.52
		c3.98,0.06,7.96,0.09,11.94-0.01c1.48-0.04,1.8,0.47,1.8,1.87C292.86,339.6,292.88,352.64,292.88,365.68z"/>
	<path class="st0" d="M317.19,365.66c0,13.03-0.03,26.06,0.04,39.09c0.01,1.64-0.44,2.08-2.05,2.02c-3.77-0.12-7.54-0.09-11.31-0.01
		c-1.38,0.03-1.89-0.3-1.89-1.8c0.05-26.13,0.04-52.26,0.01-78.39c0-1.26,0.22-1.82,1.66-1.79c3.97,0.1,7.96,0.11,11.93,0
		c1.47-0.04,1.63,0.56,1.62,1.79C317.18,339.59,317.19,352.63,317.19,365.66z"/>
	<path class="st0" d="M301.96,233.03c0,3.36-0.07,6.73,0.03,10.09c0.04,1.31-0.38,1.64-1.62,1.58c-2.05-0.1-4.12-0.07-6.17-0.01
		c-0.97,0.03-1.3-0.28-1.3-1.28c0.04-7,0.04-14,0-21c-0.01-1.03,0.39-1.28,1.33-1.26c2.13,0.05,4.26,0.07,6.38-0.01
		c1.11-0.04,1.39,0.33,1.37,1.4C301.92,226.03,301.96,229.53,301.96,233.03z"/>
	<path class="st0" d="M287.14,233.1c0,3.36-0.04,6.71,0.02,10.07c0.02,1.11-0.23,1.58-1.45,1.53c-2.05-0.1-4.11-0.06-6.16-0.01
		c-0.97,0.02-1.48-0.13-1.47-1.31c0.05-6.71,0.03-13.42,0.01-20.13c0-0.82,0.19-1.25,1.12-1.28c2.19-0.09,4.37-0.23,6.55-0.45
		c1.09-0.11,1.41,0.23,1.39,1.32C287.1,226.25,287.14,229.67,287.14,233.1z"/>
	<path class="st0" d="M307.74,232.87c0-3.29,0.06-6.57-0.03-9.86c-0.04-1.32,0.39-1.65,1.64-1.51c2.1,0.24,4.22,0.37,6.34,0.48
		c0.93,0.05,1.11,0.5,1.11,1.31c-0.02,6.71-0.03,13.42,0.01,20.12c0.01,0.99-0.31,1.3-1.28,1.27c-2.12-0.06-4.25-0.09-6.36,0.01
		c-1.25,0.06-1.45-0.46-1.43-1.55C307.78,239.71,307.74,236.29,307.74,232.87z"/>
	<path class="st2" d="M181.85,125.01c-5.7-0.47-11.49-0.97-17.29-1.39c-1.04-0.08-1.46-0.34-1.36-1.43
		c0.53-5.86,1.01-11.73,1.51-17.59c0.06-0.74-0.01-1.45,1.21-1.35c6.75,0.57,13.54,0.75,20.23,1.83c4.44,0.72,8.28,2.7,9.62,7.49
		c1.7,6.09-2.51,11.57-9.3,12.23C184.98,124.93,183.47,124.93,181.85,125.01z"/>
</g>
</svg>
