<?xml version="1.0" standalone="no"?>
<!DOCTYPE svg PUBLIC "-//W3C//DTD SVG 20010904//EN"
 "http://www.w3.org/TR/2001/REC-SVG-20010904/DTD/svg10.dtd">
<svg version="1.0" xmlns="http://www.w3.org/2000/svg"
 width="1200.000000pt" height="1200.000000pt" viewBox="0 0 1200.000000 1200.000000"
 preserveAspectRatio="xMidYMid meet">
<metadata>
Created by potrace 1.14, written by Peter Selinger 2001-2017
</metadata>
<g transform="translate(0.000000,1200.000000) scale(0.100000,-0.100000)"
fill="#000000" stroke="none">
<path d="M5898 11924 c-3 -2 -47 -7 -193 -20 -27 -2 -75 -7 -105 -10 -30 -3
-86 -7 -125 -9 -38 -3 -71 -5 -72 -6 -2 -1 -16 -3 -33 -4 -16 -1 -31 -3 -32
-5 -2 -1 -25 -3 -53 -5 -27 -1 -84 -6 -125 -10 -74 -7 -103 -9 -210 -20 -30
-3 -80 -8 -110 -10 -30 -2 -80 -7 -110 -10 -30 -2 -82 -7 -115 -10 -33 -3 -78
-8 -100 -10 -22 -3 -76 -7 -120 -10 -44 -2 -80 -5 -80 -6 0 0 -11 -2 -25 -4
-83 -9 -163 -16 -215 -20 -69 -5 -160 -13 -227 -21 -26 -3 -71 -7 -100 -9 -29
-2 -78 -7 -108 -10 -30 -3 -77 -8 -105 -10 -27 -2 -75 -6 -105 -9 -183 -17
-230 -22 -340 -30 -36 -3 -85 -8 -110 -11 -25 -2 -72 -7 -105 -10 -33 -3 -80
-7 -105 -10 -25 -3 -74 -7 -110 -10 -36 -3 -92 -8 -125 -11 -33 -3 -73 -6 -90
-7 -16 -2 -35 -6 -42 -10 -6 -4 -14 -3 -18 3 -4 6 -11 7 -17 4 -5 -4 -26 -8
-46 -10 -78 -7 -169 -15 -217 -20 -54 -5 -135 -12 -225 -19 -30 -2 -77 -7
-105 -10 -27 -3 -67 -7 -87 -9 -21 -1 -41 -5 -45 -9 -9 -9 -8 -4886 1 -5082 4
-82 9 -175 11 -205 9 -137 17 -225 21 -244 2 -12 7 -50 9 -86 3 -36 7 -76 10
-90 4 -25 13 -83 20 -143 4 -34 7 -51 32 -187 8 -47 17 -98 19 -113 2 -15 8
-36 13 -46 6 -10 8 -21 5 -24 -3 -3 -1 -22 5 -44 9 -35 39 -161 45 -194 6 -27
18 -74 23 -89 4 -8 8 -28 10 -45 3 -16 9 -34 14 -39 5 -6 9 -20 9 -31 0 -12 9
-51 21 -86 12 -35 22 -71 24 -79 2 -8 22 -71 45 -140 23 -69 43 -129 44 -135
6 -30 147 -387 183 -464 14 -31 26 -62 26 -68 0 -7 4 -13 9 -13 4 0 8 -5 8
-11 0 -11 192 -404 224 -459 8 -14 54 -92 102 -175 48 -82 88 -152 88 -155 0
-3 4 -9 8 -15 5 -5 65 -94 133 -197 68 -103 128 -193 134 -200 7 -7 42 -54 79
-104 94 -127 274 -355 312 -394 8 -9 25 -29 38 -44 178 -212 471 -511 722
-736 46 -41 94 -85 107 -97 13 -13 26 -23 29 -23 3 0 18 -12 33 -27 16 -16 56
-50 91 -78 34 -27 72 -59 84 -70 11 -11 48 -40 81 -64 33 -25 67 -52 75 -60 8
-9 38 -32 65 -51 28 -19 56 -39 62 -45 76 -64 466 -335 482 -335 5 0 11 -4 13
-8 2 -5 46 -36 98 -69 52 -33 115 -73 140 -89 25 -15 47 -29 50 -29 3 0 25
-14 50 -30 25 -16 47 -30 50 -30 14 -3 70 -41 70 -48 0 -5 5 -5 10 -2 6 3 10
1 10 -5 0 -6 4 -8 10 -5 6 3 10 2 10 -3 0 -4 16 -14 35 -22 19 -8 35 -17 35
-21 0 -4 8 -9 18 -12 9 -3 49 -24 87 -47 113 -65 109 -65 179 -29 34 18 77 42
96 55 19 13 40 24 47 24 7 0 13 5 13 11 0 5 4 8 9 5 4 -3 19 3 31 14 13 11 29
20 37 20 7 0 13 5 13 10 0 6 3 9 8 8 4 -1 25 9 47 23 113 72 207 129 214 129
4 0 21 11 37 25 16 14 35 25 42 25 6 0 12 4 12 9 0 5 12 13 28 19 15 5 37 19
49 31 12 12 27 21 32 21 5 0 16 6 23 12 23 22 108 78 117 78 5 0 11 3 13 8 2
4 23 20 48 37 25 16 47 32 50 35 3 3 25 19 50 35 24 17 51 35 60 42 8 7 40 30
70 52 30 22 60 44 65 48 6 5 28 22 50 38 22 16 51 40 64 52 13 13 28 23 32 23
5 0 17 8 27 18 10 9 31 26 46 37 16 11 36 27 45 36 9 8 49 42 90 75 41 32 84
68 96 79 11 11 47 43 79 70 229 195 564 525 746 736 25 28 54 61 65 73 11 12
40 46 65 76 25 29 52 61 60 70 12 13 54 65 92 115 4 6 23 28 41 51 18 22 57
74 87 115 30 41 57 76 60 79 3 3 19 25 35 50 16 25 33 47 36 50 6 4 66 94 94
139 6 9 21 32 35 51 14 19 32 47 39 62 8 15 17 25 21 23 4 -2 7 1 7 8 0 7 30
60 67 118 36 59 66 111 66 117 0 5 7 13 16 16 8 3 13 10 10 15 -3 5 2 19 12
32 10 13 25 38 33 54 9 17 29 55 46 85 44 80 83 159 82 166 0 4 3 10 8 13 4 3
19 29 31 56 13 28 28 57 33 65 5 8 12 22 15 30 3 8 14 33 24 55 42 89 74 166
117 270 24 61 50 124 58 140 7 17 16 41 20 55 3 14 10 34 14 45 20 47 28 70
30 77 1 7 11 34 37 103 4 11 8 25 9 30 0 6 4 17 7 25 9 22 42 123 44 137 2 11
22 79 45 150 5 18 12 40 14 50 2 10 11 47 21 83 9 36 17 71 17 78 0 6 3 12 6
12 3 0 7 10 7 23 1 12 4 33 8 47 3 14 8 35 11 48 5 23 9 38 19 82 3 14 8 39
11 55 10 54 13 70 19 95 7 32 27 156 31 195 2 17 7 41 10 55 4 14 8 41 10 60
3 35 10 88 21 165 4 22 8 62 10 90 3 27 6 73 9 100 7 75 12 156 21 300 9 162
11 5123 2 5138 -8 13 9 11 -248 32 -157 13 -258 22 -320 30 -25 3 -74 8 -110
11 -36 2 -83 7 -105 9 -22 2 -74 6 -115 10 -41 3 -91 7 -110 9 -48 5 -163 16
-235 22 -92 7 -136 13 -148 21 -6 4 -7 1 -2 -7 5 -9 4 -11 -3 -6 -11 7 -35 10
-162 21 -36 3 -87 8 -115 10 -27 3 -79 7 -115 10 -36 2 -65 5 -65 5 0 1 -20 3
-45 5 -25 3 -72 7 -105 10 -33 3 -89 8 -125 10 -36 3 -78 7 -95 10 -27 4 -92
11 -215 21 -25 2 -70 6 -100 9 -30 3 -82 7 -115 9 -33 3 -80 7 -105 10 -103
12 -271 26 -337 28 -18 1 -33 4 -33 7 0 3 -28 7 -63 7 -34 1 -87 4 -117 8 -72
8 -245 24 -340 31 -25 2 -45 4 -45 5 0 1 -20 3 -45 4 -43 3 -167 14 -240 21
-19 2 -66 7 -105 11 -38 4 -90 8 -115 9 -25 2 -45 4 -45 5 0 3 -214 7 -217 4z"/>
</g>
</svg>
